<?xml version="1.0" standalone="no"?>
<!DOCTYPE svg PUBLIC "-//W3C//DTD SVG 20010904//EN"
 "http://www.w3.org/TR/2001/REC-SVG-20010904/DTD/svg10.dtd">
<svg version="1.0" xmlns="http://www.w3.org/2000/svg"
 width="16.000000pt" height="16.000000pt" viewBox="0 0 16.000000 16.000000"
 preserveAspectRatio="xMidYMid meet">

<g transform="translate(0.000000,16.000000) scale(0.100000,-0.100000)"
fill="#ffffff" stroke="none">
<path d="M85 140 c-4 -6 1 -20 11 -31 17 -19 16 -19 -39 -19 -32 0 -57 -4 -57
-10 0 -5 25 -10 57 -10 56 0 56 0 38 -20 -12 -13 -15 -24 -9 -30 7 -7 22 2 44
25 l34 35 -36 36 c-24 24 -38 32 -43 24z"/>
</g>
</svg>
